<svg width="440" height="680" viewBox="0 0 440 680" fill="none" xmlns="http://www.w3.org/2000/svg">
<path fill-rule="evenodd" clip-rule="evenodd" d="M64.6668 1.51C63.2188 2.296 61.6438 3.741 61.1668 4.72C60.6888 5.699 60.0728 53.3 59.7978 110.5L59.2978 214.5L56.5578 222.5C53.6628 230.952 50.4708 236.25 38.4438 252.561C14.6758 284.798 1.5968 319.776 0.139801 355C-1.4472 393.38 10.4588 424.544 36.8048 450.965C68.6358 482.887 115.635 502.225 180.798 510.213C197.006 512.2 246.851 511.869 264.298 509.659C290.254 506.371 312.734 501.107 334.298 493.268C350.583 487.348 354.86 480.862 347.398 473.4C343.047 469.049 340.676 469.061 329.384 473.494C310.801 480.789 286.535 486.501 260.798 489.638C240.733 492.083 199.861 492.083 179.804 489.638C65.2438 475.67 5.9888 416.861 22.8358 333.852C27.7918 309.434 41.1068 281.484 58.2368 259.539C74.7468 238.389 78.4428 227.827 79.8068 197.898C81.4418 162.009 88.3318 139.758 105.986 113.357C126.516 82.655 158.937 60.581 194.798 52.887C208.414 49.966 233.882 49.732 246.298 52.415C273.989 58.397 295.638 70.574 315.477 91.326C342.676 119.777 359.761 162.705 359.806 202.711C359.82 215.713 363.074 229.49 368.869 241.085C370.404 244.157 375.339 251.511 379.836 257.428C421.86 312.724 431.045 369.927 405.153 415.098C399.874 424.309 399.569 427.924 403.721 432.077C406.026 434.382 407.534 435 410.853 435C414.333 435 415.602 434.423 418.18 431.666C424.934 424.445 433.653 404.214 437.43 387C440.222 374.271 439.975 345.318 436.953 331.227C430.262 300.018 417.692 273.874 395.081 244.133C387.745 234.485 385.916 231.151 382.666 221.5L380.308 214.5L379.803 110.5C379.525 53.3 378.906 5.696 378.427 4.713C377.329 2.462 372.652 0 369.472 0C368.088 0 350.46 9.934 328.415 23.136L289.784 46.272L282.041 42.746C262.329 33.77 246.57 30.579 221.798 30.547C196.918 30.515 180.806 33.755 159.74 43.025L150.866 46.93L111.719 23.465C86.3498 8.259 71.6428 0.014 69.9348 0.04C68.4838 0.062 66.1138 0.723 64.6668 1.51ZM79.7978 72.078V116.275L87.7048 104.387C98.8518 87.631 113.901 71.463 127.027 62.147C129.077 60.691 130.765 59.225 130.777 58.889C130.792 58.449 88.0218 32.397 80.5478 28.294C80.1358 28.067 79.7978 47.77 79.7978 72.078ZM334.094 43.112L308.89 58.215L314.094 62.258C327.72 72.846 343.742 91.637 354.548 109.705L359.798 118.483V73.242C359.798 48.359 359.685 28.002 359.548 28.005C359.411 28.007 347.956 34.806 334.094 43.112ZM124.908 187.396C116.239 192.201 119.866 206 129.798 206C134.865 206 139.798 201.115 139.798 196.097C139.798 188.589 131.501 183.741 124.908 187.396ZM304.908 187.396C296.239 192.201 299.866 206 309.798 206C314.865 206 319.798 201.115 319.798 196.097C319.798 188.589 311.501 183.741 304.908 187.396ZM175.298 217.437C147.248 223.697 125.647 246.13 120.813 274.024C120.049 278.433 119.787 297.89 119.994 335L120.298 389.5L123.122 397.5C131.269 420.584 147.879 436.501 171.298 443.665C176.722 445.324 181.429 445.5 220.298 445.5H263.298L271.298 442.676C294.382 434.529 310.299 417.919 317.463 394.5C319.152 388.976 319.298 383.935 319.298 331C319.298 278.065 319.152 273.024 317.463 267.5C311.88 249.25 300.077 234.137 284.298 225.032C281.548 223.445 275.698 220.878 271.298 219.326L263.298 216.505L222.298 216.302C191.078 216.147 179.867 216.418 175.298 217.437ZM178.58 237.553C160.058 242.043 145.71 256.549 141.304 275.24C139.519 282.807 139.129 347.053 140.831 353.177C142.591 359.515 147.821 366.064 153.798 369.416C158.584 372.1 160.271 372.5 166.798 372.497C173.459 372.494 175.025 372.102 180.798 368.997C195.624 361.021 207.288 343.89 208.993 327.587C209.266 324.984 208.873 324.532 205.298 323.332C199.845 321.501 192.128 315.477 187.549 309.476C177.481 296.279 177.467 274.913 187.52 267.004C193.691 262.149 196.244 261.649 216.984 261.224C238.361 260.786 243.97 261.621 250.861 266.262C262.052 273.801 262.65 295.578 252.047 309.476C247.466 315.48 239.748 321.504 234.298 323.329C230.566 324.578 230.318 324.897 230.602 328.084C232.395 348.195 252.475 370.882 270.08 372.686C280.671 373.771 290.95 368.388 296.214 359L299.298 353.5L299.605 317.901C299.946 278.376 299.511 274.317 293.702 262.809C287.41 250.345 273.017 239.674 258.912 237.015C250.436 235.418 185.596 235.852 178.58 237.553ZM201.92 282.079C199.795 282.929 199.594 283.502 200.04 287.456C200.829 294.454 204.884 300.366 210.98 303.403C213.846 304.831 217.814 306 219.798 306C221.782 306 225.75 304.831 228.616 303.403C234.709 300.367 238.767 294.455 239.555 287.465C240.014 283.388 239.845 282.968 237.36 282.024C233.995 280.744 205.143 280.789 201.92 282.079ZM217.392 362.11C214.131 367.63 202.727 378.894 195.605 383.629C185.798 390.148 177.264 392.953 167.153 392.979C158.726 393.001 148.17 390.502 144.284 387.564C141.265 385.283 140.866 385.663 141.993 389.75C146.606 406.491 161.358 420.326 179.038 424.494C188.085 426.628 251.511 426.628 260.558 424.494C278.238 420.326 292.99 406.491 297.603 389.75C298.761 385.551 298.638 385.414 295.513 387.425C286.878 392.982 269.683 394.667 258.85 391.017C246.356 386.809 231.275 375.235 223.664 364.014C221.813 361.285 220.058 359.04 219.764 359.026C219.47 359.012 218.402 360.4 217.392 362.11ZM374.908 449.396C366.239 454.201 369.866 468 379.798 468C384.865 468 389.798 463.115 389.798 458.097C389.798 450.589 381.501 445.741 374.908 449.396Z" fill="white"/>
<path d="M98.2832 671V566.264H142.961C162.883 566.264 172.844 574.394 172.844 590.653C172.844 602.567 166.35 611.088 153.361 616.215C167.229 618.803 174.162 626.737 174.162 640.019C174.162 660.673 163.249 671 141.423 671H98.2832ZM140.617 660.014C153.117 660.014 159.367 653.666 159.367 640.971C159.367 628.617 150.993 622.44 134.245 622.44H128.386V613.578C148.405 610.893 158.415 603.666 158.415 591.898C158.415 582.133 152.849 577.25 141.716 577.25H111.833V660.014H140.617ZM239.189 627.055V638.041H202.568V627.055H239.189ZM270.965 671V566.264H315.643C335.564 566.264 345.525 574.638 345.525 591.386C345.525 605.009 335.784 615.092 316.302 621.635L352.264 671H334.393L301.067 623.905V615.043C321.087 611.869 331.097 604.179 331.097 591.972C331.097 582.304 325.53 577.47 314.397 577.47H284.515V671H270.965Z" fill="white"/>
</svg>
